# xmcd
#
# Track frame offsets:
#	150
#	19889
#	38197
#	55381
#	71366
#	88495
#	103851
#	119085
#	144160
#	167186
#	185551
#	202598
#
# Disc length: 2992 seconds
#
# Revision: 0
# Processed by: cddbd v1.4PL0 Copyright (c) Steve Scherf et al.
# Submitted via: EasyCDDAExtractor 4.6.9.1
#
DISCID=ad0bae0c
DTITLE=Mary-Chapin Carpenter - Come On Come On
DYEAR=1992
DGENRE=Country
TTITLE0=The Hard Way
TTITLE1=He Thinks He'll Keep Her
TTITLE2=Rhythm Of The Blues
TTITLE3=I Feel Lucky
TTITLE4=The Bug
TTITLE5=Not Too Much To Ask
TTITLE6=Passionate Kisses
TTITLE7=Only A Dream
TTITLE8=I Am A Town
TTITLE9=Walking Through Fire
TTITLE10=I Take My Chances
TTITLE11=Come On Come On
EXTD=YEAR: 1992 ID3G: 2\nUPC=0 7464 48881 2\nLABEL=Columbia (CK48881)
EXTT0=
EXTT1=
EXTT2=
EXTT3=
EXTT4=
EXTT5=(Duet With Joe Diffie)
EXTT6=
EXTT7=
EXTT8=
EXTT9=
EXTT10=
EXTT11=
PLAYORDER=
